<?xml version="1.0" encoding="UTF-8"?>
<svg version="1.1" xmlns="http://www.w3.org/2000/svg" width="500" height="500">
<path d="M0 0 C1.6434529 0.00222432 3.28690586 0.00440074 4.93035889 0.00653076 C29.62647723 0.05083172 54.12321848 0.56252974 78.6875 3.3125 C79.61425537 3.4143158 80.54101074 3.51613159 81.49584961 3.62103271 C115.41881702 7.36012559 148.90704548 12.54391414 182.3125 19.5 C183.12527405 19.66844421 183.9380481 19.83688843 184.77545166 20.01043701 C187.09396612 20.49374914 189.41052659 20.98542957 191.7265625 21.48046875 C192.40005737 21.62092117 193.07355225 21.7613736 193.76745605 21.90608215 C198.87129326 23.014077 203.76092641 24.58604936 208.6875 26.3125 C209.12339487 203.86898661 209.12339487 203.86898661 166.62890625 348.52685547 C165.69543534 350.29744837 164.80060417 352.0882366 163.90625 353.87890625 C155.72899899 370.09287549 145.14924254 385.25495612 133.6875 399.3125 C133.2745166 399.82699707 132.8615332 400.34149414 132.43603516 400.87158203 C125.81030468 409.08548381 118.55963611 416.64116264 111.125 424.125 C110.26285889 424.99640625 109.40071777 425.8678125 108.51245117 426.765625 C102.54670442 432.70256809 96.29038686 438.09785811 89.6875 443.3125 C88.9658667 443.88814697 88.2442334 444.46379395 87.50073242 445.05688477 C68.30895357 460.26427583 47.78448602 472.55679567 25.75 483.1875 C24.34790283 483.86619141 24.34790283 483.86619141 22.91748047 484.55859375 C20.19097858 485.85255958 17.45021754 487.09786968 14.6875 488.3125 C13.75663574 488.72274414 12.82577148 489.13298828 11.86669922 489.55566406 C3.78763949 492.83448955 -1.80509759 492.75464969 -9.90625 489.703125 C-11.5483957 489.00520889 -13.18358221 488.2907556 -14.8125 487.5625 C-15.70396729 487.17126953 -16.59543457 486.78003906 -17.51391602 486.37695312 C-34.07144339 478.97050166 -50.40805447 470.69137989 -65.3125 460.3125 C-65.87404785 459.92529785 -66.4355957 459.5380957 -67.01416016 459.13916016 C-80.96520708 449.49566875 -94.11660767 439.10447189 -106.3125 427.3125 C-107.42214111 426.24370605 -107.42214111 426.24370605 -108.55419922 425.15332031 C-118.62452607 415.40731632 -128.01035363 405.60453157 -136.3125 394.3125 C-137.05113281 393.36890625 -137.78976563 392.4253125 -138.55078125 391.453125 C-192.03293905 322.67677997 -203.25012901 234.71448369 -206.3125 150.3125 C-206.34172546 149.53279846 -206.37095093 148.75309692 -206.40106201 147.94976807 C-207.9041207 107.4327637 -207.41201772 66.84983629 -207.3125 26.3125 C-201.45774372 24.24977792 -195.64612147 22.57804603 -189.57421875 21.296875 C-188.75291977 21.12031372 -187.93162079 20.94375244 -187.08543396 20.76184082 C-184.39194405 20.18719442 -181.69642907 19.62318651 -179 19.0625 C-178.06033386 18.86652222 -177.12066772 18.67054443 -176.15252686 18.46862793 C-146.94847961 12.41244668 -117.57352761 7.83514767 -87.9375 4.5 C-87.06337463 4.40054077 -86.18924927 4.30108154 -85.28863525 4.1986084 C-56.85773223 1.00572877 -28.57946329 -0.06859689 0 0 Z " fill="#011E68" transform="translate(249.3125,3.6875)"/>
<path d="M0 0 C1.23556641 0.01740234 1.23556641 0.01740234 2.49609375 0.03515625 C3.32238281 0.04417969 4.14867187 0.05320313 5 0.0625 C5.63808594 0.07410156 6.27617187 0.08570313 6.93359375 0.09765625 C10.0233937 5.22267769 10.36046306 9.11426758 10.30781555 14.9098053 C10.31178996 15.78528422 10.31576436 16.66076315 10.31985921 17.56277174 C10.32946707 20.49001215 10.31767319 23.41676745 10.3059082 26.34399414 C10.30833664 28.44511597 10.31205647 30.54623664 10.31697083 32.64735413 C10.32637565 38.34969375 10.31695801 44.05186161 10.3036387 49.75418782 C10.29232311 55.72027567 10.29643176 61.68635507 10.29838562 67.65245056 C10.29926849 77.67042854 10.28818904 87.68833883 10.26977539 97.70629883 C10.24860214 109.29203981 10.24509918 120.87768168 10.25133735 132.46343809 C10.25702974 143.60562262 10.25138718 154.74777221 10.2401638 165.88995171 C10.23551676 170.63346439 10.23464442 175.37695571 10.23674965 180.12047005 C10.23863174 185.70434446 10.23053468 191.28811784 10.21468925 196.87196922 C10.21044288 198.9226553 10.20959822 200.97335163 10.21237946 203.02404022 C10.21559683 205.82030172 10.20653055 208.61626048 10.19429016 211.41249084 C10.19806948 212.22649685 10.20184881 213.04050286 10.20574266 213.87917572 C10.17354029 218.02968513 9.9913143 221.43942961 7.93359375 225.09765625 C4.41287003 227.4448054 3.07954589 227.63394857 -1.06640625 227.09765625 C-3.70703125 225.19140625 -3.70703125 225.19140625 -6.31640625 222.59765625 C-12.12010953 217.01534764 -18.25775799 212.06254243 -24.60546875 207.12109375 C-26.91273323 205.22400962 -28.95650618 203.20755632 -31.06640625 201.09765625 C-32.71643453 199.74378689 -34.38384495 198.41087483 -36.06640625 197.09765625 C-39.28197704 194.58794247 -42.21291265 192.01047405 -45.06640625 189.09765625 C-50.00353623 184.63790779 -55.23423003 180.51005003 -60.41796875 176.34375 C-63.06640625 174.09765625 -63.06640625 174.09765625 -65.58984375 171.5703125 C-66.81574219 170.34634766 -66.81574219 170.34634766 -68.06640625 169.09765625 C-68.73752441 168.39705078 -69.40864258 167.69644531 -70.10009766 166.97460938 C-74.37115828 164.272065 -78.04752663 164.54971341 -83.00390625 164.59375 C-83.96159912 164.58432877 -84.91929199 164.57490753 -85.90600586 164.56520081 C-88.95969123 164.53657173 -92.01259756 164.53347199 -95.06640625 164.53515625 C-98.12010101 164.53154725 -101.17322998 164.52200176 -104.22680664 164.49440002 C-106.12435765 164.47762864 -108.02209503 164.47472263 -109.91967773 164.4874115 C-118.34524408 164.42031677 -118.34524408 164.42031677 -122.06640625 161.09765625 C-124.33834098 156.79887805 -124.34453344 152.66369151 -124.30932617 147.91430664 C-124.31122452 147.10391434 -124.31312286 146.29352203 -124.31507874 145.45857239 C-124.31877459 142.78738642 -124.30809775 140.11647419 -124.296875 137.4453125 C-124.29568222 135.58353202 -124.29523025 133.72175094 -124.29548645 131.85997009 C-124.29392354 127.96040064 -124.28564952 124.06092325 -124.2722168 120.16137695 C-124.25523917 115.17026062 -124.2514023 110.1792455 -124.25216198 105.18810368 C-124.25188962 101.3438979 -124.24639761 97.49971412 -124.23916054 93.65551567 C-124.23598489 91.81556807 -124.23400905 89.97561799 -124.23326683 88.1356678 C-124.23109087 85.56053582 -124.22231925 82.98550953 -124.21166992 80.41040039 C-124.21212311 79.65436523 -124.21257629 78.89833008 -124.21304321 78.11938477 C-124.18833836 74.01940061 -124.10253904 70.07688996 -123.06640625 66.09765625 C-119.88744012 63.9783455 -119.13666093 63.85069595 -115.50317383 63.87060547 C-114.58244583 63.87075653 -113.66171783 63.87090759 -112.71308899 63.87106323 C-111.227024 63.88654709 -111.227024 63.88654709 -109.7109375 63.90234375 C-108.18577766 63.90658859 -108.18577766 63.90658859 -106.62980652 63.91091919 C-103.37938717 63.92212242 -100.12924244 63.94722739 -96.87890625 63.97265625 C-94.67643627 63.98268586 -92.47396197 63.99181174 -90.27148438 64 C-84.86969782 64.0220622 -79.46807166 64.05554117 -74.06640625 64.09765625 C-74.06640625 63.43765625 -74.06640625 62.77765625 -74.06640625 62.09765625 C-72.07356487 60.75364695 -70.07220954 59.42224333 -68.06640625 58.09765625 C-65.75265686 55.89152311 -63.55633892 53.62388023 -61.37890625 51.28515625 C-60.06640625 50.09765625 -60.06640625 50.09765625 -58.06640625 50.09765625 C-57.73640625 49.10765625 -57.40640625 48.11765625 -57.06640625 47.09765625 C-55.359375 45.5625 -55.359375 45.5625 -53.25390625 44.03515625 C-52.56683594 43.52855469 -51.87976563 43.02195313 -51.171875 42.5 C-49.19223372 41.18146342 -47.21692366 40.10767454 -45.06640625 39.09765625 C-45.06640625 38.43765625 -45.06640625 37.77765625 -45.06640625 37.09765625 C-43.74640625 36.76765625 -42.42640625 36.43765625 -41.06640625 36.09765625 C-41.06640625 35.10765625 -41.06640625 34.11765625 -41.06640625 33.09765625 C-39.41640625 32.43765625 -37.76640625 31.77765625 -36.06640625 31.09765625 C-36.06640625 30.43765625 -36.06640625 29.77765625 -36.06640625 29.09765625 C-34.45703125 27.73046875 -34.45703125 27.73046875 -32.31640625 26.22265625 C-29.28472669 24.02309853 -26.67704098 21.78987332 -24.06640625 19.09765625 C-18.63106089 14.16634041 -12.98324411 9.46985157 -7.37133789 4.74194336 C-1.84966709 0.08741338 -1.84966709 0.08741338 0 0 Z " fill="#F6B335" transform="translate(210.06640625,133.90234375)"/>
<path d="M0 0 C40.564224 -2.23309364 40.564224 -2.23309364 55.80664062 9.34863281 C58.12901633 11.09713563 60.51656781 12.68844665 62.953125 14.2734375 C72.30462702 20.4012257 81.26271962 27.0290162 90 34 C91.34191406 35.051875 91.34191406 35.051875 92.7109375 36.125 C103.53380604 44.75790394 114.3206842 54.16956067 123 65 C123.97902399 66.20193915 124.95820708 67.40374871 125.9375 68.60546875 C127.02192127 69.94443211 128.10524437 71.28428559 129.1875 72.625 C129.69949951 73.25913818 130.21149902 73.89327637 130.73901367 74.54663086 C139 84.89010515 139 84.89010515 139 88 C162.43 88 185.86 88 210 88 C210 94.93 210 101.86 210 109 C190.86 109 171.72 109 152 109 C154.97 115.27 157.94 121.54 161 128 C162.67330298 132.16857936 164.27742956 136.26866755 165.75 140.5 C166.30929199 142.0941272 166.30929199 142.0941272 166.87988281 143.72045898 C182.47298197 188.8853881 185.03629181 237.67163153 173 284 C172.78359863 284.85916016 172.56719727 285.71832031 172.34423828 286.60351562 C165.76149757 312.50120907 156.0950166 341.7804497 137.40429688 361.51318359 C135.95709022 363.04543125 134.54642981 364.60551837 133.140625 366.17578125 C125.52237808 374.65577932 117.74371134 382.58423475 108.8359375 389.72265625 C107.01110305 391.18805361 105.20221759 392.67365614 103.4140625 394.18359375 C92.98149628 402.97138601 81.61110596 410.4235789 70.125 417.75 C69.44091064 418.1927124 68.75682129 418.6354248 68.05200195 419.09155273 C66.40648104 420.12500099 64.70716518 421.07191519 63 422 C62.34 421.67 61.68 421.34 61 421 C62.83223305 419.31129187 64.66559236 417.62384377 66.5 415.9375 C67.04809326 415.43307373 67.59618652 414.92864746 68.16088867 414.40893555 C71.16574341 411.65194935 74.20198084 408.9506129 77.3125 406.3125 C80.5722257 403.48203859 83.38623437 400.43055057 86.171875 397.13671875 C88.1168342 394.86344379 90.14860655 392.68924351 92.1875 390.5 C139.8987563 337.37068578 158.55761151 267.62351205 154.81396484 197.51611328 C154.32043967 191.57270314 153.34036467 185.80787768 152 180 C151.76893555 178.99404785 151.53787109 177.9880957 151.29980469 176.95166016 C145.84667878 153.94221255 137.29905975 133.71921584 125.97460938 113.02099609 C125 111 125 111 125 109 C104.54 109 84.08 109 63 109 C63.78105168 112.08851102 63.78105168 112.08851102 66.0625 114.0625 C66.701875 114.701875 67.34125 115.34125 68 116 C68 116.66 68 117.32 68 118 C68.66 118 69.32 118 70 118 C70.53625 119.134375 71.0725 120.26875 71.625 121.4375 C73.19883572 124.61307633 74.96405377 127.47610195 77 130.375 C80.15906778 134.99822011 82.10052414 139.75744662 84 145 C84.30035156 145.74894531 84.60070312 146.49789062 84.91015625 147.26953125 C86.30776309 150.7732991 87 153.17511076 87 157 C87.66 157 88.32 157 89 157 C89.495 161.455 89.495 161.455 90 166 C90.66 166 91.32 166 92 166 C95.44419134 178.48519362 95.44419134 178.48519362 95 185 C95.66 185 96.32 185 97 185 C98.79599126 195.10500779 99.31497707 204.85942356 99.26074219 215.09521484 C99.25001194 217.49732692 99.2607099 219.8986915 99.2734375 222.30078125 C99.280688 231.72353222 98.65288367 240.70017615 97 250 C96.34 250 95.68 250 95 250 C95.020625 251.051875 95.04125 252.10375 95.0625 253.1875 C95.01103198 256.32704904 94.73482813 258.96883396 94 262 C93.34 262 92.68 262 92 262 C91.86722656 262.81984375 91.73445313 263.6396875 91.59765625 264.484375 C91.42105469 265.56203125 91.24445313 266.6396875 91.0625 267.75 C90.88847656 268.81734375 90.71445312 269.8846875 90.53515625 270.984375 C90.11295829 273.36347593 89.62797116 275.66915211 89 278 C88.34 278 87.68 278 87 278 C86.01 281.96 85.02 285.92 84 290 C83.34 290 82.68 290 82 290 C81.92523438 290.82886719 81.85046875 291.65773438 81.7734375 292.51171875 C80.8074698 296.86833066 78.94785853 300.0452057 76.625 303.8125 C76.02558594 304.8324707 76.02558594 304.8324707 75.4140625 305.87304688 C72.38373659 310.8720878 72.38373659 310.8720878 69 312 C68.71125 312.7425 68.4225 313.485 68.125 314.25 C66.70242166 317.72741373 64.74283375 319.44417764 62 322 C60.93624604 323.10295865 59.87375375 324.20713546 58.8125 325.3125 C56 328 56 328 54 328 C53.67 328.99 53.34 329.98 53 331 C51.30618696 332.54318872 49.54557498 334.01400272 47.75 335.4375 C46.31914062 336.58025391 46.31914062 336.58025391 44.859375 337.74609375 C43.44398438 338.86177734 43.44398438 338.86177734 42 340 C41.18273437 340.66902344 40.36546875 341.33804687 39.5234375 342.02734375 C36.72775102 344.21282621 33.83754557 346.1722444 30.875 348.125 C29.84117187 348.80820312 28.80734375 349.49140625 27.7421875 350.1953125 C26.83726562 350.79085938 25.93234375 351.38640625 25 352 C24.01 352.66 23.02 353.32 22 354 C21.01 353.67 20.02 353.34 19 353 C19.845625 352.34 20.69125 351.68 21.5625 351 C25.49834505 347.70338732 28.6872232 343.90737776 32 340 C33.00141799 338.8479262 34.00412519 337.69697231 35.0078125 336.546875 C36.08872488 335.30224242 37.16945302 334.05744982 38.25 332.8125 C38.76965332 332.21832275 39.28930664 331.62414551 39.82470703 331.01196289 C42.05345026 328.42889364 43.98769406 326.02075934 45.734375 323.07421875 C46.15203125 322.38972656 46.5696875 321.70523437 47 321 C47.66 321 48.32 321 49 321 C49.12375 320.360625 49.2475 319.72125 49.375 319.0625 C49.58125 318.381875 49.7875 317.70125 50 317 C50.66 316.67 51.32 316.34 52 316 C53.05352843 313.69034152 54.05719096 311.3570226 55 309 C55.66 309 56.32 309 57 309 C57.226875 308.154375 57.45375 307.30875 57.6875 306.4375 C59 303 59 303 61.375 299.875 C64.35663462 295.92280396 65.58396586 291.6807203 67.02734375 286.98828125 C67.90001165 284.30719313 68.91802772 281.85560395 70.125 279.3125 C72.13205995 274.99811129 73.1610504 270.66941687 74 266 C74.66 266 75.32 266 76 266 C76.33 263.36 76.66 260.72 77 258 C77.66 258 78.32 258 79 258 C79.06058594 257.05640625 79.12117188 256.1128125 79.18359375 255.140625 C79.30927734 253.21476562 79.30927734 253.21476562 79.4375 251.25 C79.55931641 249.37054688 79.55931641 249.37054688 79.68359375 247.453125 C79.84153225 245.07994159 80.0270303 242.71511999 80.25170898 240.34716797 C81.0241326 232.0982667 81.18344007 223.90724732 81.1875 215.625 C81.19974609 214.31789062 81.21199219 213.01078125 81.22460938 211.6640625 C81.24230463 199.77285428 79.84034715 188.38494004 76.875 176.875 C75.84600276 172.83198957 75 169.21321464 75 165 C74.34 165 73.68 165 73 165 C72.01 161.04 71.02 157.08 70 153 C69.34 153 68.68 153 68 153 C67.78085937 152.39414063 67.56171875 151.78828125 67.3359375 151.1640625 C64.36331995 143.30958525 60.35810235 136.41502897 55.625 129.5 C54 127 54 127 54 125 C53.34 125 52.68 125 52 125 C50.80859375 123.6015625 50.80859375 123.6015625 49.4375 121.625 C44.29160937 114.52417543 38.27720567 108.11201605 32 102 C31.45730469 101.44699219 30.91460937 100.89398438 30.35546875 100.32421875 C27.54584016 97.4656206 24.7369374 94.71734839 21.625 92.1875 C19 90 19 90 18 88 C16.40960677 87.10108209 14.81687677 86.20613083 13.21484375 85.328125 C10.57727687 83.74651523 8.155683 81.95950765 5.6875 80.125 C1.22235484 76.81015539 -3.34257817 73.93057078 -8.19921875 71.2265625 C-8.79347656 70.82179688 -9.38773438 70.41703125 -10 70 C-10 69.34 -10 68.68 -10 68 C-11.11375 67.814375 -11.11375 67.814375 -12.25 67.625 C-14.80141485 67.04513299 -16.7267573 66.26291261 -19 65 C-19 64.34 -19 63.68 -19 63 C-19.763125 62.855625 -20.52625 62.71125 -21.3125 62.5625 C-24 62 -24 62 -27 61 C-27.495 59.515 -27.495 59.515 -28 58 C-23.58338849 57.94195719 -19.16687504 57.90638896 -14.75 57.875 C-13.49574219 57.85824219 -12.24148437 57.84148437 -10.94921875 57.82421875 C-9.74394531 57.81777344 -8.53867188 57.81132813 -7.296875 57.8046875 C-6.18666992 57.79421387 -5.07646484 57.78374023 -3.93261719 57.77294922 C-1.06049058 57.99531666 0.57223735 58.50718425 3 60 C3 60.66 3 61.32 3 62 C3.66 62.04125 4.32 62.0825 5 62.125 C8.74544636 63.21742186 11.05167444 65.16731994 14.03515625 67.625 C16.05689736 69.03981684 17.59037239 69.57066769 20 70 C20 70.66 20 71.32 20 72 C20.680625 72.20625 21.36125 72.4125 22.0625 72.625 C25.36442241 74.1705807 27.59501615 76.10625049 30.25390625 78.5625 C32.07710894 80.06348119 33.88795054 80.96333214 36 82 C37.35308313 83.31328657 38.68870078 84.64499081 40 86 C42.81215512 87.40607756 45.1404422 87.11950486 48.28564453 87.11352539 C49.2516861 87.11374443 49.2516861 87.11374443 50.23724365 87.1139679 C52.36913402 87.1132704 54.50093737 87.10548566 56.6328125 87.09765625 C58.10968986 87.09579149 59.58656784 87.09436786 61.06344604 87.09336853 C64.95312199 87.08954792 68.84276067 87.07972152 72.73242188 87.06866455 C76.70051571 87.05844064 80.66861555 87.05386881 84.63671875 87.04882812 C92.42449616 87.03809885 100.21224286 87.02102789 108 87 C106.72513545 85.39889837 105.44921554 83.79863704 104.17285156 82.19873047 C103.46243713 81.30749481 102.75202271 80.41625916 102.02008057 79.49801636 C91.43695035 66.41099754 79.25940295 54.33939593 66 44 C65.02804687 43.22269531 64.05609375 42.44539063 63.0546875 41.64453125 C48.6168963 30.26436751 33.05275272 20.62630326 17.22802734 11.31152344 C15.20729074 10.12202124 13.19087014 8.92559695 11.17578125 7.7265625 C5.77968396 4.45108864 5.77968396 4.45108864 0 2 C0 1.34 0 0.68 0 0 Z " fill="#F3B135" transform="translate(221,29)"/>
<path d="M0 0 C0.9811377 -0.02900391 1.96227539 -0.05800781 2.97314453 -0.08789062 C3.85156006 -0.11592773 4.72997559 -0.14396484 5.63500977 -0.17285156 C8.37197652 0.21056415 9.21507151 1.02727308 10.91455078 3.14648438 C10.22490234 3.81292969 9.53525391 4.479375 8.82470703 5.16601562 C2.37004329 11.49672149 -3.51699837 18.00744482 -9.08544922 25.14648438 C-9.57271484 25.76265625 -10.05998047 26.37882812 -10.56201172 27.01367188 C-23.06563469 42.84338175 -33.49968958 59.41832006 -43.08544922 77.14648438 C-45.06544922 80.77648437 -47.04544922 84.40648438 -49.08544922 88.14648438 C-26.31544922 88.14648438 -3.54544922 88.14648438 19.91455078 88.14648438 C19.91455078 79.89648438 19.91455078 71.64648438 19.91455078 63.14648438 C25.91455078 65.14648438 25.91455078 65.14648438 26.91455078 67.14648438 C28.89455078 68.13648437 30.87455078 69.12648438 32.91455078 70.14648438 C32.58455078 75.75648437 32.25455078 81.36648437 31.91455078 87.14648438 C30.03767578 87.53835937 28.16080078 87.93023437 26.22705078 88.33398438 C19.20839925 90.07831355 16.88743876 92.1871524 12.91455078 98.14648438 C10.20639038 98.50724792 10.20639038 98.50724792 6.72070312 98.48706055 C5.41950531 98.48683395 4.1183075 98.48660736 2.77767944 98.4863739 C1.35194559 98.47105275 -0.07378478 98.45540474 -1.49951172 98.43945312 C-2.95396488 98.43385881 -4.40842369 98.42958793 -5.86288452 98.42658997 C-9.69351777 98.41512811 -13.5238105 98.38564985 -17.35430908 98.35247803 C-21.2620381 98.32180575 -25.16982206 98.30809074 -29.07763672 98.29296875 C-36.7470629 98.26078105 -44.41620837 98.209569 -52.08544922 98.14648438 C-52.39758362 99.09235413 -52.70971802 100.03822388 -53.03131104 101.01275635 C-53.86765685 103.4990341 -54.7637599 105.85981693 -55.81982422 108.25585938 C-61.90718803 122.26996701 -66.82630383 136.47609469 -71.08544922 151.14648438 C-74.38544922 151.14648438 -77.68544922 151.14648438 -81.08544922 151.14648438 C-79.89652778 143.05771579 -78.21150783 135.29792677 -75.89794922 127.45898438 C-75.49866211 126.03682617 -75.49866211 126.03682617 -75.09130859 124.5859375 C-72.43715578 115.49200348 -68.78713652 106.85188529 -65.08544922 98.14648438 C-71.86690458 98.18805704 -78.64753279 98.26028721 -85.4284668 98.35400391 C-87.73600802 98.38225752 -90.04364682 98.40345009 -92.35131836 98.41748047 C-95.66554886 98.43884881 -98.97860073 98.48546883 -102.29248047 98.53710938 C-103.84416679 98.53895233 -103.84416679 98.53895233 -105.42720032 98.54083252 C-106.38796982 98.56055115 -107.34873932 98.58026978 -108.33862305 98.60058594 C-109.18467606 98.60946838 -110.03072906 98.61835083 -110.90242004 98.62750244 C-113.27793747 98.97080747 -113.27793747 98.97080747 -114.88212585 101.18060303 C-115.47777092 102.15371429 -115.47777092 102.15371429 -116.08544922 103.14648438 C-117.2674574 93.37723727 -118.06969173 84.65449447 -112.04589844 76.37060547 C-109.7312998 73.53005179 -107.34424531 70.77831867 -104.859375 68.08544922 C-103.20986788 66.28247846 -101.65164644 64.43856889 -100.11279297 62.54101562 C-89.48138463 49.5097326 -77.45753341 37.35293231 -64.08544922 27.14648438 C-62.90934175 26.21851226 -61.7335837 25.29009718 -60.55810547 24.36132812 C-56.48070169 21.17454115 -52.3007511 18.14739543 -48.08544922 15.14648438 C-47.33650391 14.59927734 -46.58755859 14.05207031 -45.81591797 13.48828125 C-31.08667357 2.90550481 -17.81438086 0.84575317 0 0 Z " fill="#445A91" transform="translate(185.08544921875,31.853515625)"/>
<path d="M0 0 C1.24680699 3.74042096 0.56720305 4.95622258 -0.73046875 8.62890625 C-1.12169922 9.74716797 -1.51292969 10.86542969 -1.91601562 12.01757812 C-2.54540039 13.77231445 -2.54540039 13.77231445 -3.1875 15.5625 C-3.58775391 16.70525391 -3.98800781 17.84800781 -4.40039062 19.02539062 C-6.77782358 25.76466167 -9.34162626 32.35406566 -12 39 C-4.41 39.33 3.18 39.66 11 40 C7.96890743 47.75603098 7.96890743 47.75603098 4 51 C0.42030802 51.41236834 -3.10042208 51.05183748 -6.6875 50.8125 C-13.86830101 50.46819989 -13.86830101 50.46819989 -19.93115234 53.77148438 C-23.58999378 59.00758463 -25.92905511 64.9474774 -28.46728516 70.78173828 C-31.12755225 76.36753643 -34.58141376 81.39909845 -38.0625 86.5 C-38.74626709 87.51223633 -39.43003418 88.52447266 -40.13452148 89.56738281 C-45.42834781 97.32885945 -51.01471505 104.76307527 -57 112 C-57.89159625 113.09426143 -58.78221701 114.18931839 -59.671875 115.28515625 C-61.7719729 117.86462432 -63.88089595 120.43614572 -66 123 C-68.97 122.01 -71.94 121.02 -75 120 C-75 115.94944855 -72.95200051 114.35843261 -70.375 111.5 C-54.29233414 93.01101616 -41.59572279 72.53491376 -30 51 C-51.45 51 -72.9 51 -95 51 C-95 70.14 -95 89.28 -95 109 C-103.91073959 106.02975347 -103.91073959 106.02975347 -107 103 C-107.84925571 99.07844578 -107.69673111 95.22993478 -107.5859375 91.234375 C-107.57744781 90.08584045 -107.56895813 88.93730591 -107.56021118 87.75396729 C-107.52662012 84.08502466 -107.45132247 80.41827849 -107.375 76.75 C-107.34490813 74.26305257 -107.31753099 71.77607069 -107.29296875 69.2890625 C-107.22680981 63.19195872 -107.12640172 57.09613626 -107 51 C-108.13846375 51.02997826 -108.13846375 51.02997826 -109.29992676 51.06056213 C-116.47872341 51.24145476 -123.65640439 51.37819154 -130.83689117 51.46630955 C-134.52799764 51.51313859 -138.21721021 51.57656281 -141.90722656 51.67895508 C-145.47357035 51.77728785 -149.03810219 51.83066495 -152.60569763 51.85389519 C-154.61798988 51.87843958 -156.62955977 51.94861836 -158.64074707 52.01966858 C-167.62916923 52.0245934 -167.62916923 52.0245934 -171.66674805 49.00680542 C-177 43.17843346 -177 43.17843346 -177 40 C-153.57 40 -130.14 40 -106 40 C-106 38.68 -106 37.36 -106 36 C-102.37 36 -98.74 36 -95 36 C-95 37.32 -95 38.64 -95 40 C-93.92516357 39.99214478 -93.92516357 39.99214478 -92.82861328 39.98413086 C-89.59408438 39.96339333 -86.35956944 39.95035016 -83.125 39.9375 C-81.43310547 39.92493164 -81.43310547 39.92493164 -79.70703125 39.91210938 C-78.63066406 39.90888672 -77.55429688 39.90566406 -76.4453125 39.90234375 C-75.45031738 39.89710693 -74.45532227 39.89187012 -73.43017578 39.88647461 C-71 40 -71 40 -69 41 C-68.48219971 40.68740234 -67.96439941 40.37480469 -67.4309082 40.05273438 C-63.6890797 38.43229001 -60.12357895 38.95497865 -56.10546875 39.15625 C-54.32754723 39.21077738 -52.54954687 39.26278162 -50.77148438 39.3125 C-47.9782242 39.39889202 -45.18908545 39.49991785 -42.39819336 39.64453125 C-31.82296387 40.60106585 -31.82296387 40.60106585 -22.33642578 37.01953125 C-20.48482121 34.42001976 -19.22678923 31.94068986 -18 29 C-17.21300285 27.61630995 -16.4121218 26.24036818 -15.59375 24.875 C-14.89173277 23.58555738 -14.19379802 22.2938836 -13.5 21 C-10.04195439 14.69607731 -6.26272619 8.79777995 -2 3 C-1.34 2.01 -0.68 1.02 0 0 Z " fill="#435990" transform="translate(312,341)"/>
<path d="M0 0 C0.99 0.495 0.99 0.495 2 1 C1.35675781 1.66902344 0.71351563 2.33804688 0.05078125 3.02734375 C-15.7212375 19.78933229 -28.79402821 38.7006192 -40.25 58.625 C-40.70898682 59.42260742 -41.16797363 60.22021484 -41.64086914 61.04199219 C-46.07625035 68.89665769 -49.95021459 76.90042917 -54 85 C-69.18 85 -84.36 85 -100 85 C-91.91870839 72.30082746 -91.91870839 72.30082746 -87.3125 67.125 C-86.54993896 66.25355347 -86.54993896 66.25355347 -85.77197266 65.36450195 C-84.19121135 63.56725459 -82.59766883 61.78222289 -81 60 C-80.48711426 59.4239502 -79.97422852 58.84790039 -79.44580078 58.25439453 C-73.00880436 51.04782398 -66.4063092 44.23020001 -59 38 C-58.47100098 37.55333984 -57.94200195 37.10667969 -57.39697266 36.64648438 C-40.91407251 22.82422825 -23.05883143 11.91433521 -4 2 C-3.2869873 1.59990723 -2.57397461 1.19981445 -1.83935547 0.78759766 C-1.23236816 0.52769043 -0.62538086 0.2677832 0 0 Z " fill="#001E69" transform="translate(179,35)"/>
<path d="M0 0 C2.57157123 -0.04723294 5.13497167 -0.05539013 7.70703125 -0.01953125 C9.83023473 -0.00693811 11.95542214 -0.06191427 14.07421875 -0.19921875 C31.93842385 -0.47935707 49.20487221 13.74331694 63 24 C63.90371338 24.67047363 63.90371338 24.67047363 64.82568359 25.35449219 C76.55763242 34.14159217 87.11247048 44.05724972 97.5 54.375 C98.07556641 54.94581299 98.65113281 55.51662598 99.24414062 56.10473633 C109 65.89928668 109 65.89928668 109 69 C109.66 69 110.32 69 111 69 C111 69.66 111 70.32 111 71 C106.34128754 72.13128937 102.65399214 72.23096435 98 71 C92.84109835 67.21832528 88.88718031 61.93439955 84.79052734 57.07275391 C71.27897661 41.43148506 52.99556277 28.90222159 35 19 C34.32904297 18.62681641 33.65808594 18.25363281 32.96679688 17.86914062 C24.50771224 13.18881298 15.97335745 8.90832391 7.00024414 5.29443359 C3.54447115 3.86565128 2.13400368 3.20100552 0 0 Z " fill="#445A90" transform="translate(294,31)"/>
<path d="M0 0 C7.38728591 -0.02464071 14.77454812 -0.0428316 22.16186523 -0.05493164 C24.67716895 -0.05997363 27.19246972 -0.06680703 29.70776367 -0.07543945 C33.31429775 -0.08751094 36.92079323 -0.09322949 40.52734375 -0.09765625 C42.22575661 -0.10539818 42.22575661 -0.10539818 43.95848083 -0.11329651 C45.51998619 -0.11340981 45.51998619 -0.11340981 47.11303711 -0.11352539 C48.03459091 -0.115746 48.95614471 -0.11796661 49.90562439 -0.12025452 C52 0 52 0 53 1 C53.09823937 2.66429051 53.12973631 4.33281931 53.125 6 C53.12886719 7.36125 53.12886719 7.36125 53.1328125 8.75 C53 11 53 11 52 12 C50.37325222 12.09340434 48.74245949 12.11745171 47.11303711 12.11352539 C46.07203354 12.11344986 45.03102997 12.11337433 43.95848083 12.11329651 C42.8262056 12.10813522 41.69393036 12.10297394 40.52734375 12.09765625 C39.37456436 12.0962413 38.22178497 12.09482635 37.03407288 12.09336853 C33.33518936 12.08775005 29.63636536 12.07519442 25.9375 12.0625 C23.43684983 12.05748738 20.93619871 12.05292406 18.43554688 12.04882812 C12.29034149 12.03777462 6.14518085 12.0204976 0 12 C0 8.04 0 4.08 0 0 Z " fill="#455A92" transform="translate(235,246)"/>
<path d="M0 0 C6 2 6 2 12 5 C12 18.86 12 32.72 12 47 C8.04 47 4.08 47 0 47 C0 31.49 0 15.98 0 0 Z " fill="#425990" transform="translate(205,40)"/>
<path d="M0 0 C3.3 0 6.6 0 10 0 C10.268125 1.1653125 10.53625 2.330625 10.8125 3.53125 C15.17530994 21.98488591 20.85660654 39.98288672 28.6496582 57.28930664 C29.48582223 59.17031088 30.25061513 61.08277034 31 63 C30.67 63.66 30.34 64.32 30 65 C19.38404582 52.12932989 8.40056529 37.29145447 4 21 C3.63390625 19.7521875 3.2678125 18.504375 2.890625 17.21875 C1.23470925 11.41251997 -0.26139921 6.096203 0 0 Z " fill="#435990" transform="translate(103,315)"/>
<path d="M0 0 C7.92 0 15.84 0 24 0 C23 11 23 11 22 12 C20.21928754 12.08726223 18.4351686 12.10699041 16.65234375 12.09765625 C15.57275391 12.09443359 14.49316406 12.09121094 13.38085938 12.08789062 C12.24455078 12.07951172 11.10824219 12.07113281 9.9375 12.0625 C8.79732422 12.05798828 7.65714844 12.05347656 6.48242188 12.04882812 C3.65492582 12.0369976 0.82745655 12.0190615 -2 12 C-1.34 8.04 -0.68 4.08 0 0 Z " fill="#445A91" transform="translate(338,246)"/>
<path d="M0 0 C4.40129573 2.07817016 8.06478736 4.89296185 11.9375 7.8125 C12.64068359 8.33392578 13.34386719 8.85535156 14.06835938 9.39257812 C19.98925487 13.83741157 24.80469022 18.04350887 28.3125 24.6875 C28.82425781 25.64011719 29.33601563 26.59273437 29.86328125 27.57421875 C31 30 31 30 31 32 C27.1773333 32.61186763 23.80361279 32.8106272 20 32 C16.8831329 29.20207517 15.16448636 25.81473735 13.25 22.125 C12.21663444 20.27170963 11.18017613 18.42014033 10.140625 16.5703125 C9.63853516 15.65282227 9.13644531 14.73533203 8.61914062 13.79003906 C6.4121563 9.987051 3.89523607 6.44822669 1.31152344 2.89404297 C0 1 0 1 0 0 Z " fill="#42588F" transform="translate(257,70)"/>
<path d="M0 0 C-3.79456848 3.12198623 -8.06516931 5.25303361 -12.375 7.5625 C-19.81762325 11.60669626 -26.68878018 16.10315646 -33.47265625 21.1640625 C-36 23 -36 23 -37 23 C-37 18.71 -37 14.42 -37 10 C-30.18770626 5.79531662 -24.07470808 3.72720062 -16.25 2.1875 C-15.23550781 1.97158203 -14.22101563 1.75566406 -13.17578125 1.53320312 C-8.698247 0.6065124 -4.58746745 -0.12102098 0 0 Z " fill="#435990" transform="translate(105,43)"/>
<path d="M0 0 C3.3 0 6.6 0 10 0 C10 7.92 10 15.84 10 24 C7.35871507 20.0380726 5.70812262 15.81950513 3.875 11.4375 C3.50246094 10.56158203 3.12992187 9.68566406 2.74609375 8.78320312 C2.39417969 7.94595703 2.04226563 7.10871094 1.6796875 6.24609375 C1.35726074 5.47966553 1.03483398 4.7132373 0.70263672 3.92358398 C0 2 0 2 0 0 Z " fill="#445A90" transform="translate(420,154)"/>
<path d="M0 0 C2.31 0 4.62 0 7 0 C6.67 3.96 6.34 7.92 6 12 C4.02 12 2.04 12 0 12 C0 8.04 0 4.08 0 0 Z " fill="#40568E" transform="translate(415,246)"/>
<path d="M0 0 C0.33 0.99 0.66 1.98 1 3 C0.34 3.66 -0.32 4.32 -1 5 C-1 5.99 -1 6.98 -1 8 C-2.86328125 9.640625 -2.86328125 9.640625 -5.3125 11.25 C-6.51326172 12.06210937 -6.51326172 12.06210937 -7.73828125 12.890625 C-10 14 -10 14 -13 13 C-12.154375 12.34 -11.30875 11.68 -10.4375 11 C-6.50076779 7.73974683 -3.27623206 3.90627668 0 0 Z " fill="#C79740" transform="translate(253,369)"/>
<path d="M0 0 C3.3 0 6.6 0 10 0 C7.23776722 2.76223278 4.79293383 2.57856291 1 3 C0.67 2.01 0.34 1.02 0 0 Z " fill="#9E7E47" transform="translate(193,87)"/>
<path d="M0 0 C-2.38573379 1.89213369 -4.07175348 3.02391783 -7 4 C-7 3.34 -7 2.68 -7 2 C-7.99 1.67 -8.98 1.34 -10 1 C-6.59437148 0.22157062 -3.49234244 -0.09978121 0 0 Z " fill="#2F4884" transform="translate(105,43)"/>
</svg>
